<svg height="512pt" viewBox="-20 0 512 512" width="512pt" xmlns="http://www.w3.org/2000/svg"><path d="m216 368-62.40625 24-41.59375 16-41.601562-16-62.398438-24 104-40zm0 0" fill="#fff"/><path d="m216 416-62.40625 24-41.59375 16-41.601562-16-62.398438-24 62.398438-24 41.601562 16 41.59375-16zm0 0" fill="#fff"/><path d="m216 464-104 40-104-40 62.398438-24 41.601562 16 41.59375-16zm0 0" fill="#fff"/><path d="m464 464-104 40-104-40 62.398438-24 41.601562 16 41.59375-16zm0 0" fill="#fff"/><path d="m464 416-62.40625 24-41.59375 16-41.601562-16-62.398438-24 62.398438-24 41.601562 16 41.59375-16zm0 0" fill="#fff"/><path d="m464 368-62.40625 24-41.59375 16-41.601562-16-62.398438-24 104-40zm0 0" fill="#fff"/><path d="m200 8h80v24h-80zm0 0" fill="#5c9eff"/><path d="m368 80v128c0 13.199219-10.808594 24-24 24h-216c-13.199219 0-16-10.800781-16-24v-128c0-13.199219 10.800781-24 24-24h208c13.191406 0 24 10.800781 24 24zm0 0" fill="#94c1ff"/><path d="m344 56h-32c13.191406 0 24 10.800781 24 24v128c0 13.199219-10.808594 24-24 24h32c13.191406 0 24-10.800781 24-24v-128c0-13.199219-10.808594-24-24-24zm0 0" fill="#5c9eff"/><g fill="#116fff"><path d="m360 416c-.976562 0-1.945312-.175781-2.871094-.527344l-104-40c-3.089844-1.191406-5.128906-4.160156-5.128906-7.472656s2.039062-6.28125 5.128906-7.472656l104-40c1.855469-.703125 3.886719-.703125 5.75 0l104 40c3.082032 1.191406 5.121094 4.160156 5.121094 7.472656s-2.039062 6.28125-5.128906 7.472656l-104 40c-.925782.351563-1.894532.527344-2.871094.527344zm-81.710938-48 81.710938 31.433594 81.710938-31.433594-81.710938-31.433594zm0 0"/><path d="m360 464c-.976562 0-1.945312-.175781-2.871094-.527344l-104-40c-3.089844-1.191406-5.128906-4.160156-5.128906-7.472656s2.039062-6.28125 5.128906-7.472656l62.390625-24c4.128907-1.582032 8.753907.472656 10.34375 4.59375 1.585938 4.125-.480469 8.757812-4.589843 10.34375l-42.992188 16.535156 81.71875 31.433594 81.710938-31.433594-43-16.527344c-4.117188-1.585937-6.175782-6.214844-4.589844-10.34375 1.582031-4.128906 6.207031-6.175781 10.34375-4.59375l62.414062 24c3.082032 1.183594 5.121094 4.152344 5.121094 7.464844s-2.039062 6.28125-5.128906 7.472656l-104 40c-.925782.351563-1.894532.527344-2.871094.527344zm0 0"/><path d="m360 512c-.976562 0-1.945312-.175781-2.871094-.527344l-104-40c-3.089844-1.191406-5.128906-4.160156-5.128906-7.472656s2.039062-6.28125 5.128906-7.472656l62.390625-24c4.128907-1.574219 8.753907.472656 10.34375 4.59375 1.585938 4.125-.480469 8.757812-4.589843 10.34375l-42.992188 16.535156 81.71875 31.433594 81.710938-31.433594-43-16.527344c-4.117188-1.585937-6.175782-6.214844-4.589844-10.34375 1.582031-4.128906 6.207031-6.167968 10.34375-4.59375l62.414062 24c3.082032 1.183594 5.121094 4.152344 5.121094 7.464844s-2.039062 6.28125-5.128906 7.472656l-104 40c-.925782.351563-1.894532.527344-2.871094.527344zm0 0"/><path d="m200 64c-4.425781 0-8-3.574219-8-8v-48c0-4.425781 3.574219-8 8-8s8 3.574219 8 8v48c0 4.425781-3.574219 8-8 8zm0 0"/><path d="m280 16h-80c-4.425781 0-8-3.574219-8-8s3.574219-8 8-8h80c4.425781 0 8 3.574219 8 8s-3.574219 8-8 8zm0 0"/><path d="m280 64c-4.425781 0-8-3.574219-8-8v-48c0-4.425781 3.574219-8 8-8s8 3.574219 8 8v48c0 4.425781-3.574219 8-8 8zm0 0"/><path d="m280 40h-80c-4.425781 0-8-3.574219-8-8s3.574219-8 8-8h80c4.425781 0 8 3.574219 8 8s-3.574219 8-8 8zm0 0"/><path d="m304 128h-128c-4.425781 0-8-3.574219-8-8s3.574219-8 8-8h128c4.425781 0 8 3.574219 8 8s-3.574219 8-8 8zm0 0"/><path d="m304 176h-128c-4.425781 0-8-3.574219-8-8s3.574219-8 8-8h128c4.425781 0 8 3.574219 8 8s-3.574219 8-8 8zm0 0"/><path d="m344 240h-216c-15.921875 0-24-10.769531-24-32v-128c0-17.648438 14.351562-32 32-32h208c17.648438 0 32 14.351562 32 32v128c0 17.648438-14.351562 32-32 32zm-208-176c-8.824219 0-16 7.175781-16 16v128c0 16 4.441406 16 8 16h216c8.824219 0 16-7.175781 16-16v-128c0-8.824219-7.175781-16-16-16zm0 0"/><path d="m240 280c-4.425781 0-8-3.574219-8-8v-40c0-4.425781 3.574219-8 8-8s8 3.574219 8 8v40c0 4.425781-3.574219 8-8 8zm0 0"/><path d="m360 280h-120c-4.425781 0-8-3.574219-8-8s3.574219-8 8-8h120c4.425781 0 8 3.574219 8 8s-3.574219 8-8 8zm0 0"/><path d="m360 304c-4.425781 0-8-3.574219-8-8v-24c0-4.425781 3.574219-8 8-8s8 3.574219 8 8v24c0 4.425781-3.574219 8-8 8zm0 0"/><path d="m112 416c-.976562 0-1.945312-.175781-2.871094-.527344l-104-40c-3.089844-1.191406-5.128906-4.160156-5.128906-7.472656s2.039062-6.28125 5.128906-7.472656l104-40c1.855469-.703125 3.886719-.703125 5.75 0l104 40c3.082032 1.191406 5.121094 4.160156 5.121094 7.472656s-2.039062 6.28125-5.128906 7.472656l-104 40c-.925782.351563-1.894532.527344-2.871094.527344zm-81.710938-48 81.710938 31.433594 81.710938-31.433594-81.710938-31.433594zm0 0"/><path d="m112 464c-.976562 0-1.945312-.175781-2.871094-.527344l-104-40c-3.089844-1.191406-5.128906-4.160156-5.128906-7.472656s2.039062-6.28125 5.128906-7.472656l62.414063-24c4.121093-1.582032 8.753906.472656 10.34375 4.59375 1.585937 4.125-.480469 8.757812-4.589844 10.34375l-43.007813 16.535156 81.710938 31.433594 81.71875-31.433594-42.984375-16.527344c-4.117187-1.585937-6.175781-6.214844-4.589844-10.34375 1.589844-4.128906 6.199219-6.175781 10.34375-4.59375l62.390625 24c3.082032 1.183594 5.121094 4.152344 5.121094 7.464844s-2.039062 6.28125-5.128906 7.472656l-104 40c-.925782.351563-1.894532.527344-2.871094.527344zm0 0"/><path d="m112 512c-.976562 0-1.945312-.175781-2.871094-.527344l-104-40c-3.089844-1.191406-5.128906-4.160156-5.128906-7.472656s2.039062-6.28125 5.128906-7.472656l62.414063-24c4.121093-1.574219 8.753906.472656 10.34375 4.59375 1.585937 4.125-.480469 8.757812-4.589844 10.34375l-43.007813 16.535156 81.710938 31.433594 81.71875-31.433594-42.984375-16.527344c-4.117187-1.585937-6.175781-6.214844-4.589844-10.34375 1.589844-4.128906 6.199219-6.167968 10.34375-4.59375l62.390625 24c3.082032 1.183594 5.121094 4.152344 5.121094 7.464844s-2.039062 6.28125-5.128906 7.472656l-104 40c-.925782.351563-1.894532.527344-2.871094.527344zm0 0"/><path d="m240 280h-128c-4.425781 0-8-3.574219-8-8s3.574219-8 8-8h128c4.425781 0 8 3.574219 8 8s-3.574219 8-8 8zm0 0"/><path d="m112 304c-4.425781 0-8-3.574219-8-8v-24c0-4.425781 3.574219-8 8-8s8 3.574219 8 8v24c0 4.425781-3.574219 8-8 8zm0 0"/></g></svg>